<mxfile host="65bd71144e">
    <diagram id="1sfFwneXmm5I_952sE8u" name="Page-1">
        <mxGraphModel dx="1896" dy="1142" grid="1" gridSize="10" guides="1" tooltips="1" connect="1" arrows="1" fold="1" page="1" pageScale="1" pageWidth="850" pageHeight="1100" background="#ffffff" math="0" shadow="0">
            <root>
                <mxCell id="0"/>
                <mxCell id="1" parent="0"/>
                <mxCell id="3" value="Interfaz Usuario&lt;br&gt;" style="strokeWidth=1;shadow=0;dashed=0;align=center;html=1;shape=mxgraph.mockup.containers.window;align=left;verticalAlign=top;spacingLeft=8;strokeColor2=#008cff;strokeColor3=#c4c4c4;mainText=;fontSize=17;labelBackgroundColor=none;" parent="1" vertex="1">
                    <mxGeometry x="1930" y="290" width="240" height="235" as="geometry"/>
                </mxCell>
                <mxCell id="5" value="" style="aspect=fixed;html=1;points=[];align=center;image;fontSize=32;image=img/lib/azure2/iot/Time_Series_Insights_Event_Sources.svg;fontFamily=Helvetica;fontColor=default;strokeColor=default;fillColor=default;" parent="1" vertex="1">
                    <mxGeometry x="182" y="325" width="100" height="120" as="geometry"/>
                </mxCell>
                <mxCell id="6" value="API Flask" style="text;html=1;strokeColor=none;fillColor=none;align=center;verticalAlign=middle;whiteSpace=wrap;rounded=0;fontSize=32;" parent="1" vertex="1">
                    <mxGeometry x="192" y="470" width="60" height="30" as="geometry"/>
                </mxCell>
                <mxCell id="8" value="" style="shape=flexArrow;endArrow=classic;html=1;fontSize=32;exitX=1;exitY=0.5;exitDx=0;exitDy=0;endWidth=17.77777777777778;endSize=18.955555555555552;entryX=0;entryY=0.5;entryDx=0;entryDy=0;fillColor=#eeeeee;strokeColor=#36393d;" parent="1" target="9" edge="1">
                    <mxGeometry width="50" height="50" relative="1" as="geometry">
                        <mxPoint x="292" y="385" as="sourcePoint"/>
                        <mxPoint x="452" y="380" as="targetPoint"/>
                    </mxGeometry>
                </mxCell>
                <mxCell id="9" value="Producer" style="rounded=0;whiteSpace=wrap;html=1;fontSize=32;fillColor=#eeeeee;strokeColor=#36393d;fontColor=#000000;" parent="1" vertex="1">
                    <mxGeometry x="462" y="347.5" width="225" height="75" as="geometry"/>
                </mxCell>
                <mxCell id="10" value="" style="shape=flexArrow;endArrow=classic;html=1;fontSize=32;exitX=1;exitY=0.5;exitDx=0;exitDy=0;endWidth=17.77777777777778;endSize=18.955555555555552;fillColor=#eeeeee;strokeColor=#36393d;" parent="1" source="9" edge="1">
                    <mxGeometry width="50" height="50" relative="1" as="geometry">
                        <mxPoint x="702" y="395" as="sourcePoint"/>
                        <mxPoint x="812" y="385" as="targetPoint"/>
                    </mxGeometry>
                </mxCell>
                <mxCell id="13" value="" style="shape=flexArrow;endArrow=classic;html=1;fontSize=32;exitX=1;exitY=0.5;exitDx=0;exitDy=0;endWidth=17.77777777777778;endSize=18.955555555555552;fillColor=#eeeeee;strokeColor=#36393d;" parent="1" edge="1">
                    <mxGeometry width="50" height="50" relative="1" as="geometry">
                        <mxPoint x="1012.0000000000005" y="383.89" as="sourcePoint"/>
                        <mxPoint x="1137" y="383.89" as="targetPoint"/>
                    </mxGeometry>
                </mxCell>
                <mxCell id="14" value="Consumer" style="rounded=0;whiteSpace=wrap;html=1;fontSize=32;fillColor=#eeeeee;strokeColor=#36393d;fontColor=#000000;" parent="1" vertex="1">
                    <mxGeometry x="1132" y="347.5" width="225" height="75" as="geometry"/>
                </mxCell>
                <mxCell id="15" value="" style="whiteSpace=wrap;html=1;aspect=fixed;fontSize=32;fillColor=#eeeeee;strokeColor=#36393d;" parent="1" vertex="1">
                    <mxGeometry x="1472" y="230" width="305" height="305" as="geometry"/>
                </mxCell>
                <mxCell id="16" value="" style="shape=flexArrow;endArrow=classic;html=1;fontSize=32;exitX=1;exitY=0.5;exitDx=0;exitDy=0;endWidth=17.77777777777778;endSize=18.955555555555552;entryX=0;entryY=0.75;entryDx=0;entryDy=0;fillColor=#647687;strokeColor=#314354;" parent="1" edge="1" target="15">
                    <mxGeometry width="50" height="50" relative="1" as="geometry">
                        <mxPoint x="1357.0000000000005" y="383.8899999999999" as="sourcePoint"/>
                        <mxPoint x="1470" y="384" as="targetPoint"/>
                        <Array as="points">
                            <mxPoint x="1410" y="420"/>
                        </Array>
                    </mxGeometry>
                </mxCell>
                <mxCell id="18" value="" style="endArrow=classic;html=1;fontSize=32;" parent="1" edge="1">
                    <mxGeometry width="50" height="50" relative="1" as="geometry">
                        <mxPoint x="1302" y="600" as="sourcePoint"/>
                        <mxPoint x="1302" y="450" as="targetPoint"/>
                    </mxGeometry>
                </mxCell>
                <mxCell id="19" value="" style="endArrow=classic;html=1;fontSize=32;" parent="1" edge="1">
                    <mxGeometry width="50" height="50" relative="1" as="geometry">
                        <mxPoint x="1202" y="450" as="sourcePoint"/>
                        <mxPoint x="1202" y="600" as="targetPoint"/>
                    </mxGeometry>
                </mxCell>
                <mxCell id="20" value="" style="image;html=1;image=img/lib/clip_art/general/Empty_Folder_128x128.png;fontSize=32;" parent="1" vertex="1">
                    <mxGeometry x="1512" y="280" width="85" height="105" as="geometry"/>
                </mxCell>
                <mxCell id="21" value="" style="image;html=1;image=img/lib/clip_art/general/Empty_Folder_128x128.png;fontSize=32;" parent="1" vertex="1">
                    <mxGeometry x="1512" y="410" width="80" height="80" as="geometry"/>
                </mxCell>
                <mxCell id="22" value="" style="image;html=1;image=img/lib/clip_art/telecommunication/Signal_tower_on_128x128.png;fontSize=32;" parent="1" vertex="1">
                    <mxGeometry y="347.5" width="80" height="80" as="geometry"/>
                </mxCell>
                <mxCell id="23" value="Raw" style="text;html=1;strokeColor=none;fillColor=none;align=center;verticalAlign=middle;whiteSpace=wrap;rounded=0;fontSize=32;fontColor=#000000;" parent="1" vertex="1">
                    <mxGeometry x="1642" y="317.5" width="60" height="30" as="geometry"/>
                </mxCell>
                <mxCell id="30" value="Processed" style="text;html=1;strokeColor=none;fillColor=none;align=center;verticalAlign=middle;whiteSpace=wrap;rounded=0;fontSize=32;fontColor=#000000;" parent="1" vertex="1">
                    <mxGeometry x="1652" y="435" width="60" height="30" as="geometry"/>
                </mxCell>
                <mxCell id="34" value="" style="aspect=fixed;html=1;points=[];align=center;image;fontSize=12;image=img/lib/azure2/ai_machine_learning/Cognitive_Services.svg;" parent="1" vertex="1">
                    <mxGeometry x="1170" y="600" width="168" height="118.59" as="geometry"/>
                </mxCell>
                <mxCell id="37" value="" style="aspect=fixed;html=1;points=[];align=center;image;fontSize=12;image=img/lib/azure2/general/Input_Output.svg;" parent="1" vertex="1">
                    <mxGeometry x="830" y="310" width="168.72" height="145" as="geometry"/>
                </mxCell>
                <mxCell id="38" value="Broker" style="text;html=1;strokeColor=none;fillColor=none;align=center;verticalAlign=middle;whiteSpace=wrap;rounded=0;fontSize=32;fontColor=#000000;" parent="1" vertex="1">
                    <mxGeometry x="884.36" y="490" width="75.64" height="40" as="geometry"/>
                </mxCell>
                <mxCell id="40" value="Model" style="text;html=1;strokeColor=none;fillColor=none;align=center;verticalAlign=middle;whiteSpace=wrap;rounded=0;fontSize=32;fontColor=#000000;" parent="1" vertex="1">
                    <mxGeometry x="1224" y="760" width="60" height="30" as="geometry"/>
                </mxCell>
                <mxCell id="41" value="Streamlit&lt;br&gt;" style="text;html=1;strokeColor=none;fillColor=none;align=center;verticalAlign=middle;whiteSpace=wrap;rounded=0;fontSize=32;fontColor=#000000;" parent="1" vertex="1">
                    <mxGeometry x="2020" y="540" width="60" height="30" as="geometry"/>
                </mxCell>
                <mxCell id="45" value="" style="sketch=0;aspect=fixed;html=1;points=[];align=center;image;fontSize=12;image=img/lib/mscae/Data_Lake.svg;labelBackgroundColor=none;fontColor=#000000;" parent="1" vertex="1">
                    <mxGeometry x="150" y="60" width="106.4" height="140" as="geometry"/>
                </mxCell>
                <mxCell id="46" value="DATALAKE" style="text;html=1;strokeColor=none;fillColor=none;align=center;verticalAlign=middle;whiteSpace=wrap;rounded=0;fontSize=38;fontColor=#000000;fontStyle=1" parent="1" vertex="1">
                    <mxGeometry x="360" y="130" width="75.64" height="40" as="geometry"/>
                </mxCell>
                <mxCell id="47" value="" style="shape=flexArrow;endArrow=classic;html=1;fontSize=32;endWidth=17.77777777777778;endSize=18.955555555555552;fillColor=#eeeeee;strokeColor=#36393d;" edge="1" parent="1">
                    <mxGeometry width="50" height="50" relative="1" as="geometry">
                        <mxPoint x="90" y="387" as="sourcePoint"/>
                        <mxPoint x="182" y="387.5" as="targetPoint"/>
                    </mxGeometry>
                </mxCell>
                <mxCell id="48" value="" style="shape=flexArrow;endArrow=classic;html=1;fontSize=32;endWidth=17.77777777777778;endSize=18.955555555555552;fillColor=#eeeeee;strokeColor=#36393d;exitX=0.58;exitY=0.042;exitDx=0;exitDy=0;exitPerimeter=0;entryX=0;entryY=0.25;entryDx=0;entryDy=0;" edge="1" parent="1" source="5" target="15">
                    <mxGeometry width="50" height="50" relative="1" as="geometry">
                        <mxPoint x="660" y="340" as="sourcePoint"/>
                        <mxPoint x="1460" y="300" as="targetPoint"/>
                        <Array as="points">
                            <mxPoint x="840" y="240"/>
                        </Array>
                    </mxGeometry>
                </mxCell>
                <mxCell id="49" value="" style="shape=flexArrow;endArrow=classic;html=1;fontSize=32;exitX=1;exitY=0.75;exitDx=0;exitDy=0;endWidth=17.77777777777778;endSize=18.955555555555552;entryX=0;entryY=0.766;entryDx=0;entryDy=0;fillColor=#647687;strokeColor=#314354;entryPerimeter=0;" edge="1" parent="1" source="15" target="3">
                    <mxGeometry width="50" height="50" relative="1" as="geometry">
                        <mxPoint x="1760.0000000000005" y="454.9999999999999" as="sourcePoint"/>
                        <mxPoint x="1875" y="529.86" as="targetPoint"/>
                    </mxGeometry>
                </mxCell>
            </root>
        </mxGraphModel>
    </diagram>
</mxfile>